<svg xmlns="http://www.w3.org/2000/svg" width="0" height="0" style="position:absolute">
  <defs>
    <symbol id="icon-power" viewBox="0 0 24 24"><path d="M12 2v10"/><path d="M18.4 6.6a9 9 0 1 1-12.8 0"/></symbol>
    <symbol id="icon-shield" viewBox="0 0 24 24"><path d="M12 22s8-4 8-10V5l-8-3-8 3v7c0 6 8 10 8 10Z"/><path d="m9 12 2 2 4-5"/></symbol>
    <symbol id="icon-wifi" viewBox="0 0 24 24"><path d="M5 13a10 10 0 0 1 14 0"/><path d="M8.5 16.5a5 5 0 0 1 7 0"/><path d="M12 20h.01"/></symbol>
    <symbol id="icon-temp" viewBox="0 0 24 24"><path d="M14 14.76V5a2 2 0 0 0-4 0v9.76a4 4 0 1 0 4 0Z"/></symbol>
    <symbol id="icon-mic" viewBox="0 0 24 24"><path d="M12 2a3 3 0 0 0-3 3v7a3 3 0 0 0 6 0V5a3 3 0 0 0-3-3Z"/><path d="M19 10v2a7 7 0 0 1-14 0v-2"/></symbol>
    <symbol id="icon-face" viewBox="0 0 24 24"><path d="M8 3H5a2 2 0 0 0-2 2v3"/><path d="M16 3h3a2 2 0 0 1 2 2v3"/><path d="M8 21H5a2 2 0 0 1-2-2v-3"/><path d="M16 21h3a2 2 0 0 0 2-2v-3"/><circle cx="12" cy="12" r="3"/></symbol>
    <symbol id="icon-ai" viewBox="0 0 24 24"><path d="M12 2v20"/><path d="M2 12h20"/><path d="m4.9 4.9 14.2 14.2"/><path d="m19.1 4.9-14.2 14.2"/></symbol>
    <symbol id="icon-chart" viewBox="0 0 24 24"><path d="M4 19V5"/><path d="M4 19h16"/><path d="m7 15 4-4 3 3 5-7"/></symbol>
    <symbol id="icon-lock" viewBox="0 0 24 24"><rect x="4" y="10" width="16" height="10" rx="2"/><path d="M8 10V7a4 4 0 0 1 8 0v3"/></symbol>
    <symbol id="icon-trash" viewBox="0 0 24 24"><path d="M3 6h18"/><path d="M8 6V4h8v2"/><path d="M19 6l-1 15H6L5 6"/></symbol>
    <symbol id="icon-optimize" viewBox="0 0 24 24"><path d="m5 19 14-14"/><path d="M14 5h5v5"/><path d="M5 5h5"/><path d="M5 5v5"/></symbol>
    <symbol id="icon-diagnostics" viewBox="0 0 24 24"><path d="M4 12h4l2-6 4 12 2-6h4"/></symbol>
    <symbol id="icon-camera" viewBox="0 0 24 24"><path d="M4 8h4l2-3h4l2 3h4v11H4z"/><circle cx="12" cy="13" r="3"/></symbol>
    <symbol id="icon-send" viewBox="0 0 24 24"><path d="M22 2 11 13"/><path d="m22 2-7 20-4-9-9-4Z"/></symbol>
    <symbol id="icon-settings" viewBox="0 0 24 24"><path d="M12 2v3"/><path d="M12 19v3"/><path d="m4.93 4.93 2.12 2.12"/><path d="m16.95 16.95 2.12 2.12"/><path d="M2 12h3"/><path d="M19 12h3"/><path d="m4.93 19.07 2.12-2.12"/><path d="m16.95 7.05 2.12-2.12"/><circle cx="12" cy="12" r="4"/></symbol>
  </defs>
</svg>
